<?xml version="1.0" encoding="iso-8859-1"?>
<!-- Generator: Adobe Illustrator 29.5.1, SVG Export Plug-In . SVG Version: 9.03 Build 0)  -->
<svg version="1.1" xmlns="http://www.w3.org/2000/svg" xmlns:xlink="http://www.w3.org/1999/xlink" x="0px" y="0px"
	 viewBox="0 0 800 327" style="enable-background:new 0 0 800 327;" xml:space="preserve">
<g id="Layer_1">
	<rect x="0.229" y="0.211" style="fill:#FFFFFF;" width="218.59" height="218.59"/>
	<path style="fill:#63C740;" d="M36.324,60.588c13.401,0,24.264-10.863,24.264-24.264S49.724,12.06,36.324,12.06
		S12.06,22.924,12.06,36.324S22.923,60.588,36.324,60.588z"/>
	<path style="fill:#5CABDF;" d="M109.116,60.588c13.4,0,24.264-10.863,24.264-24.264S122.516,12.06,109.116,12.06
		c-13.401,0-24.264,10.863-24.264,24.264S95.715,60.588,109.116,60.588z"/>
	<path style="fill:#D66C7B;" d="M181.905,60.588c13.401,0,24.264-10.863,24.264-24.264S195.306,12.06,181.905,12.06
		c-13.4,0-24.264,10.863-24.264,24.264S168.505,60.588,181.905,60.588z"/>
	<path style="fill:#C98DEF;" d="M36.324,133.38c13.401,0,24.264-10.864,24.264-24.264c0-13.401-10.863-24.264-24.264-24.264
		S12.06,95.715,12.06,109.116C12.06,122.516,22.923,133.38,36.324,133.38z"/>
	<path style="fill:#FAA669;" d="M109.116,133.38c13.4,0,24.264-10.864,24.264-24.264c0-13.401-10.864-24.264-24.264-24.264
		c-13.401,0-24.264,10.863-24.264,24.264C84.852,122.516,95.715,133.38,109.116,133.38z"/>
	<path style="fill:#3AEFC4;" d="M36.324,206.17c13.401,0,24.264-10.863,24.264-24.264c0-13.4-10.863-24.264-24.264-24.264
		S12.06,168.506,12.06,181.906C12.06,195.307,22.923,206.17,36.324,206.17z"/>
	<path d="M57.471,143.066c0,0,42.696,65.592,108.288,0C129.663,154.485,93.567,154.485,57.471,143.066z"/>
	<path style="fill:#D66C7B;" d="M92.587,170.097c0,0,2.542-8.924,16.529-8.924s15.779,8.924,15.779,8.924
		S109.046,174.962,92.587,170.097z"/>
	
		<ellipse transform="matrix(0.5586 -0.8294 0.8294 0.5586 -43.159 151.0738)" style="fill:#F9BD95;" cx="120.362" cy="116.087" rx="9.168" ry="6.87"/>
	<path style="fill:#FFFFFF;" d="M64.438,144.017c0,0,0.823,7.817,9.051,7.405s9.874-6.171,9.874-6.171"/>
	<path style="fill:#FFFFFF;" d="M80.894,146.485c0,0,0.823,7.817,9.051,7.405c8.228-0.411,9.874-6.171,9.874-6.171"/>
	<path style="fill:#FFFFFF;" d="M98.173,147.719c0,0,0.823,7.817,9.051,7.405s9.874-6.171,9.874-6.171"/>
	<path style="fill:#FFFFFF;" d="M115.452,147.719c0,0,0.823,7.817,9.051,7.405s9.874-6.171,9.874-6.171"/>
	<path style="fill:#FFFFFF;" d="M130.674,146.074c0,0,0.823,7.817,9.051,7.405s9.874-6.171,9.874-6.171"/>
</g>
<g id="Layer_2">
	<circle cx="37.697" cy="36.818" r="18.956"/>
	<circle cx="183.455" cy="36.985" r="22.093"/>
	<circle style="fill:#FEFFFD;" cx="42.416" cy="43.182" r="5.953"/>
	<circle style="fill:#FEFFFD;" cx="190.907" cy="28.906" r="5.652"/>
</g>
</svg>
